<?xml version="1.0" encoding="UTF-8" standalone="no"?>
<svg xmlns="http://www.w3.org/2000/svg" viewBox="0 0 100 100" width="100" height="100">
  <!-- Caparazón de la tortuga -->
  <ellipse cx="50" cy="50" rx="35" ry="30" fill="#5D4037" stroke="#3E2723" stroke-width="2"/>
  
  <!-- Patrones del caparazón -->
  <path d="M50 20 L65 30 L65 50 L50 60 L35 50 L35 30 Z" fill="#795548" stroke="#3E2723" stroke-width="1"/>
  <circle cx="50" cy="40" r="10" fill="#8D6E63" stroke="#3E2723" stroke-width="1"/>
  
  <!-- Cabeza -->
  <ellipse cx="75" cy="45" rx="12" ry="8" fill="#795548" stroke="#3E2723" stroke-width="2"/>
  
  <!-- Ojos -->
  <circle cx="80" cy="42" r="2" fill="#212121"/>
  <circle cx="80" cy="48" r="2" fill="#212121"/>
  
  <!-- Extremidades -->
  <ellipse cx="30" cy="25" rx="8" ry="6" transform="rotate(-30 30 25)" fill="#795548" stroke="#3E2723" stroke-width="2"/>
  <ellipse cx="30" cy="75" rx="8" ry="6" transform="rotate(30 30 75)" fill="#795548" stroke="#3E2723" stroke-width="2"/>
  <ellipse cx="70" cy="25" rx="8" ry="6" transform="rotate(30 70 25)" fill="#795548" stroke="#3E2723" stroke-width="2"/>
  <ellipse cx="70" cy="75" rx="8" ry="6" transform="rotate(-30 70 75)" fill="#795548" stroke="#3E2723" stroke-width="2"/>
  
  <!-- Cola -->
  <ellipse cx="25" cy="50" rx="10" ry="5" fill="#795548" stroke="#3E2723" stroke-width="2"/>
</svg>
